<svg xmlns="http://www.w3.org/2000/svg" width="35.788" height="23.426" viewBox="0 0 35.788 23.426"><defs><style>.a{fill:#001ac6;}</style></defs><path class="a" d="M33.571,15.942a1.068,1.068,0,0,0-.073-.082l-1.254-1.21c1.04-.236,2.16-1.107,2.16-2,0-1.042-1.446-1.411-2.679-1.411-1.29,0-1.44.884-1.455,1.508l-3.236-3.12A4.567,4.567,0,0,0,24.2,8.463H11.59A4.568,4.568,0,0,0,8.755,9.626L5.52,12.746c-.017-.625-.167-1.508-1.455-1.508-1.235,0-2.68.37-2.68,1.411,0,.894,1.12,1.765,2.161,2L2.291,15.86c-.028.027-.048.054-.073.082A7.025,7.025,0,0,0,0,20.759v4.586a4.184,4.184,0,0,0,1.148,2.876V30A1.918,1.918,0,0,0,3.09,31.889H5.437A1.916,1.916,0,0,0,7.378,30v-.455H28.411V30a1.916,1.916,0,0,0,1.941,1.888H32.7A1.917,1.917,0,0,0,34.64,30V28.222a4.18,4.18,0,0,0,1.148-2.876V20.759A7.017,7.017,0,0,0,33.571,15.942ZM9.943,11.012a3.236,3.236,0,0,1,1.647-.667H24.2a3.236,3.236,0,0,1,1.647.667l4.243,4.112H5.7ZM1.456,20.065a2.012,2.012,0,0,1,1.975-2.046c1.091,0,4.654,2.092,4.654,3.221s-3.564.868-4.654.868A2.009,2.009,0,0,1,1.456,20.065Zm5.923,7.469H6.626l-2.231,0a4.243,4.243,0,0,1-1.365-.66,1.936,1.936,0,0,1-.37-.375,1.469,1.469,0,0,1-.207-.379,1.726,1.726,0,0,1,.3-1.505H6.557L9.1,27.533Zm15.992,0H12.419a2.069,2.069,0,0,1-2.069-2.068H25.439A2.068,2.068,0,0,1,23.371,27.536Zm.481-3.479H11.938c-1.242,0-2.25-1.531-2.25-3.419H26.1C26.1,22.527,25.093,24.057,23.851,24.057Zm9.486,2.069a1.479,1.479,0,0,1-.208.378,1.9,1.9,0,0,1-.37.375,4.205,4.205,0,0,1-1.365.66l-2.231,0H26.692l2.54-2.914H33.04A1.722,1.722,0,0,1,33.337,26.126Zm-.979-4.017c-1.09,0-4.654.26-4.654-.868s3.564-3.221,4.654-3.221a2.046,2.046,0,0,1,0,4.089Z" transform="translate(0 -8.463)"/></svg>