<svg xmlns="http://www.w3.org/2000/svg" width="29.5" height="26.618" viewBox="0 0 29.5 26.618"><defs><style>.a{fill:#001ac6;}</style></defs><path class="a" d="M14.742,27.454a8.649,8.649,0,0,0-13.3,10.92H7.8l1.131-1.885a.864.864,0,0,1,1.47-.019l2.386,3.75,3.478-7.343a.865.865,0,0,1,1.542-.04l2.982,5.537h7.253c5.373-8.4-5.246-17.964-13.3-10.92Z" transform="translate(0 -25.006)"/><path class="a" d="M65.449,205.75l-2.416-4.487-3.416,7.212a.865.865,0,0,1-1.51.094l-2.476-3.89-.663,1.105a.864.864,0,0,1-.741.42H48.746c.172.18-.744-.734,11.324,11.271a.864.864,0,0,0,1.219,0c11.882-11.82,11.152-11.091,11.324-11.271h-6.4A.864.864,0,0,1,65.449,205.75Z" transform="translate(-45.938 -191.108)"/></svg>