<svg xmlns="http://www.w3.org/2000/svg" width="30.612" height="30.976" viewBox="0 0 30.612 30.976"><defs><style>.a{fill:#001ac6;}</style></defs><g transform="translate(-3.002)"><path class="a" d="M3,417.815l18.123-6.051H5.016Z" transform="translate(0 -386.839)"/><path class="a" d="M86.625,252.665H75.145l-.906,2.724H89.345Z" transform="translate(-66.925 -237.371)"/><path class="a" d="M47.343,327.665l-1.09,3.275H67.2l.7-.235-3.035-3.04Z" transform="translate(-40.633 -307.831)"/><path class="a" d="M101.463,110.187,99.2,117h9.063Z" transform="translate(-90.372 -103.517)"/><ellipse class="a" cx="2.721" cy="2.724" rx="2.721" ry="2.724" transform="translate(27.448)"/><path class="a" d="M396.979,110h1.813v1.816h-1.813Z" transform="translate(-370.129 -103.342)"/><path class="a" d="M346.979,49h1.813v1.816h-1.813Z" transform="translate(-323.156 -46.034)"/><path class="a" d="M341.954,155h1.813v1.816h-1.813Z" transform="translate(-318.435 -145.618)"/><path class="a" d="M204.346,9.432c1.126,1.039,2.682,1.126,4.363.263a5.764,5.764,0,0,1-1.77,2.334l1.291,1.293c.147-.122.295-.256.441-.4,2.241-2.241,2.138-4.206,1.877-5.178l-.008-.03A6.262,6.262,0,0,0,208.885,1.2l-.8-.8L206.8,1.685l.8.8a5,5,0,0,1,1.459,3.043,3.651,3.651,0,0,0-4.821-.049,2.729,2.729,0,0,0-.083,3.763Zm1.177-2.672a1.285,1.285,0,0,1,.935-.353,2.552,2.552,0,0,1,2.07,1.2,2.424,2.424,0,0,1-.157.188c-.864.559-2.052,1.05-2.848.252a.911.911,0,0,1,0-1.285Z" transform="translate(-188.309 -0.378)"/><path class="a" d="M330.951,165.668a3.518,3.518,0,0,1,2.228-.849l1.814,0,0-1.816-1.813,0a5.663,5.663,0,0,0-4.43,2.339,6.793,6.793,0,0,0-4.069,2.2,8.15,8.15,0,0,0-.88,1.038l1.307,1.309a7.176,7.176,0,0,1,2.439-2.281,5.718,5.718,0,0,0-.2,2.839,3.28,3.28,0,0,0,3.125,2.965c1.806,0,3.425-1.687,3.09-4.261A4.432,4.432,0,0,0,330.951,165.668Zm-.322,5.916c-.707.118-1.3-.47-1.507-1.5a4.41,4.41,0,0,1,.581-2.913,2.571,2.571,0,0,1,2.053,2.211C331.932,170.738,331.295,171.473,330.629,171.584Z" transform="translate(-301.378 -153.133)"/></g></svg>