<svg xmlns="http://www.w3.org/2000/svg" width="29.082" height="20.489" viewBox="0 0 29.082 20.489"><defs><style>.a{fill:#001ac6;}</style></defs><g transform="translate(0 0)"><path class="a" d="M22.931,55.05H1.663A1.687,1.687,0,0,0,0,56.75V69.83a1.648,1.648,0,0,0,1.663,1.626h.861V60.788a3.152,3.152,0,0,1,3.17-3.14H24.579v-.9A1.675,1.675,0,0,0,22.931,55.05Z" transform="translate(0 -55.05)"/></g><g transform="translate(20.295 15.077)"><path class="a" d="M278.35,258.44a1.19,1.19,0,0,0-1.678.148.787.787,0,0,1-.111.111.744.744,0,0,1-1.047-.111,1.2,1.2,0,1,0-.913,1.96,1.161,1.161,0,0,0,.921-.431.737.737,0,0,1,.572-.267.717.717,0,0,1,.572.26,1.031,1.031,0,0,0,.156.156,1.191,1.191,0,1,0,1.529-1.826Z" transform="translate(-273.399 -258.15)"/></g><g transform="translate(4.009 4.083)"><path class="a" d="M76.961,110.049H55.685A1.668,1.668,0,0,0,54,111.7V112.8H78.653V111.7A1.67,1.67,0,0,0,76.961,110.049Z" transform="translate(-54 -110.049)"/></g><g transform="translate(4.038 8.375)"><g transform="translate(0 0)"><rect class="a" width="25" height="1" transform="translate(0.044 0.493)"/></g></g><g transform="translate(4.009 11.729)"><path class="a" d="M54,213.05v7.06a1.7,1.7,0,0,0,1.685,1.7H76.953a1.708,1.708,0,0,0,1.693-1.7v-7.06Zm22.708,6.043a2.686,2.686,0,0,1-3.727.72,2.646,2.646,0,0,1-1.5.46,2.684,2.684,0,0,1,0-5.367,2.646,2.646,0,0,1,1.5.46,2.684,2.684,0,0,1,3.727,3.727Z" transform="translate(-54 -213.05)"/></g></svg>