<svg xmlns="http://www.w3.org/2000/svg" width="29.314" height="31.271" viewBox="0 0 29.314 31.271"><defs><style>.a{fill:#001ac6;}</style></defs><path class="a" d="M45.3,26.284,40.475,8.077a.916.916,0,0,0-.886-.681h-5.27a4.579,4.579,0,1,0-7.22,0H21.46a.916.916,0,0,0-.889.7L16.043,26.345a.916.916,0,0,0,.068.626l1.87,3.789a.916.916,0,0,0,.822.511h23.82a.916.916,0,0,0,.83-.528l1.793-3.836a.916.916,0,0,0,.056-.623ZM30.709,1.832a2.748,2.748,0,1,1-2.748,2.748A2.752,2.752,0,0,1,30.709,1.832Zm.865,22.482v.458a.916.916,0,0,1-1.832,0v-.39a4.933,4.933,0,0,1-1.84-.7.916.916,0,1,1,1-1.533,2.818,2.818,0,0,0,2.382.323A1.433,1.433,0,0,0,32.1,21.4c.1-.916-.938-1.327-1.735-1.642a4.048,4.048,0,0,1-2.318-1.679,2.747,2.747,0,0,1,1.7-3.885V13.8a.916.916,0,1,1,1.832,0v.321a3.131,3.131,0,0,1,1.457.727A.916.916,0,1,1,31.789,16.2a1.711,1.711,0,0,0-1.783-.132.9.9,0,0,0-.357,1.121c.419.756,1.911.83,3.07,1.733A3.053,3.053,0,0,1,31.574,24.314Z" transform="translate(-16.016 0)"/></svg>