<svg xmlns="http://www.w3.org/2000/svg" width="38.38" height="30.883" viewBox="0 0 38.38 30.883"><defs><style>.a{fill:#001ac6;}</style></defs><g transform="translate(7.093 2.017)"><path class="a" d="M107.331,76.909A12.711,12.711,0,1,0,120.041,89.62,12.711,12.711,0,0,0,107.331,76.909Zm0,22.355a9.644,9.644,0,1,1,9.644-9.644A9.655,9.655,0,0,1,107.331,99.264Z" transform="translate(-94.62 -76.909)"/></g><g transform="translate(12.744 7.668)"><path class="a" d="M177.068,152.3a7.059,7.059,0,1,0,7.059,7.059A7.067,7.067,0,0,0,177.068,152.3Z" transform="translate(-170.009 -152.299)"/></g><g transform="translate(33.986 0)"><path class="a" d="M456.966,65.8V50.355a.347.347,0,0,0-.624-.21,14.619,14.619,0,0,0-2.97,8.833v5.65a1.173,1.173,0,0,0,1.173,1.173h.489c-.482,4.981-.8,11.947-.8,12.762a1.834,1.834,0,1,0,3.533,0C457.767,77.749,457.448,70.782,456.966,65.8Z" transform="translate(-453.372 -50.008)"/></g><g transform="translate(0 1.384)"><path class="a" d="M5.129,79.818A3.377,3.377,0,0,0,6.76,76.926l-.484-7.918a.572.572,0,0,0-1.142.063l.315,6.35a.646.646,0,0,1-1.292,0L4,69.074a.618.618,0,0,0-1.236,0L2.6,75.421a.646.646,0,0,1-1.292,0l.315-6.35a.572.572,0,0,0-1.142-.063L0,76.926a3.377,3.377,0,0,0,1.631,2.893,1.911,1.911,0,0,1,.909,1.845c-.552,4.974-.927,13.1-.927,13.98A2.105,2.105,0,0,0,3.38,97.97a2.106,2.106,0,0,0,1.767-2.327c0-.885-.375-9.006-.927-13.98A1.912,1.912,0,0,1,5.129,79.818Z" transform="translate(0 -68.471)"/></g></svg>