<svg xmlns="http://www.w3.org/2000/svg" width="25.928" height="25.928" viewBox="0 0 25.928 25.928"><defs><style>.a{fill:#001ac6;}</style></defs><path class="a" d="M352.412,247.824a2.912,2.912,0,1,1,2.912-2.912A2.915,2.915,0,0,1,352.412,247.824Z" transform="translate(-331.801 -229.745)"/><path class="a" d="M50.412,247.824a2.912,2.912,0,1,1,2.912-2.912A2.915,2.915,0,0,1,50.412,247.824Z" transform="translate(-45.095 -229.745)"/><path class="a" d="M151.888,2.026A2.5,2.5,0,0,1,149.636.634L149.529.42a.76.76,0,0,0-.679-.42H144.8a.76.76,0,0,0-.679.42l-.107.214a2.5,2.5,0,0,1-2.252,1.392.76.76,0,0,0-.76.76V7.12a7.865,7.865,0,0,0,5.605,7.534.759.759,0,0,0,.437,0,7.865,7.865,0,0,0,5.605-7.534V2.785A.76.76,0,0,0,151.888,2.026Zm-2.378,4.422-2.865,2.865a.759.759,0,0,1-1.074,0L144.138,7.88a.76.76,0,0,1,1.074-1.074l.9.9,2.328-2.327a.76.76,0,1,1,1.074,1.074Z" transform="translate(-133.86 0)"/><g transform="translate(0 18.32)"><path class="a" d="M330.785,361.763a4.423,4.423,0,0,1-6.216,0,5.321,5.321,0,0,0-1.121,1.09l.417.366a5.825,5.825,0,0,1,1.991,4.38v1.772h6.381a.76.76,0,0,0,.76-.76v-2.532A5.314,5.314,0,0,0,330.785,361.763Z" transform="translate(-307.069 -361.759)"/><path class="a" d="M2.211,361.763A5.314,5.314,0,0,0,0,366.076v2.532a.76.76,0,0,0,.76.76H7.14v-1.772a5.825,5.825,0,0,1,1.991-4.38l.417-.366a5.323,5.323,0,0,0-1.121-1.09,4.423,4.423,0,0,1-6.216,0Z" transform="translate(0 -361.759)"/><path class="a" d="M178.136,413.07a3.915,3.915,0,0,1-5.664,0A4.294,4.294,0,0,0,171,416.307v1.772h8.609v-1.772A4.294,4.294,0,0,0,178.136,413.07Z" transform="translate(-162.341 -410.472)"/></g><path class="a" d="M210.905,316.811a2.405,2.405,0,1,1,2.405-2.405A2.408,2.408,0,0,1,210.905,316.811Z" transform="translate(-197.942 -296.2)"/></svg>