<svg xmlns="http://www.w3.org/2000/svg" width="22.624" height="22.585" viewBox="0 0 22.624 22.585"><defs><style>.a{fill:#001ac6;}</style></defs><g transform="translate(0 0)"><g transform="translate(0 0)"><path class="a" d="M21.149,4.835H19.5A2.62,2.62,0,0,0,19.9,3.7a2.929,2.929,0,0,0-4.879-2.485L12.946,3.1a2.21,2.21,0,0,0-3.269,0L7.595,1.212A2.929,2.929,0,0,0,2.716,3.7a2.62,2.62,0,0,0,.4,1.137H1.475A1.475,1.475,0,0,0,0,6.31V8.524a.738.738,0,0,0,.738.738H21.887a.738.738,0,0,0,.738-.738V6.31A1.476,1.476,0,0,0,21.149,4.835ZM9.1,4.589v.246H5.628a1.452,1.452,0,0,1-.613-2.77A1.42,1.42,0,0,1,6.6,2.306L9.1,4.567C9.1,4.575,9.1,4.582,9.1,4.589ZM18.44,3.5a1.494,1.494,0,0,1-1.516,1.334h-3.4V4.589c0-.009,0-.017,0-.026l2.457-2.227a1.476,1.476,0,0,1,1.4-.357A1.435,1.435,0,0,1,18.44,3.5Z" transform="translate(0 -0.448)"/></g></g><g transform="translate(1.475 10.289)"><path class="a" d="M33.391,233.291v10.82a1.475,1.475,0,0,0,1.475,1.475h6.886v-12.3Z" transform="translate(-33.391 -233.291)"/></g><g transform="translate(12.788 10.289)"><path class="a" d="M289.391,233.291v12.3h6.886a1.475,1.475,0,0,0,1.475-1.475v-10.82Z" transform="translate(-289.391 -233.291)"/></g></svg>