<svg xmlns="http://www.w3.org/2000/svg" width="38.898" height="32.446" viewBox="0 0 38.898 32.446"><defs><style>.a{fill:#001ac6;}</style></defs><path class="a" d="M38.138,48.993l-18.31-6.46a1.139,1.139,0,0,0-.758,0L.76,48.993a1.14,1.14,0,0,0,0,2.148l18.31,6.509a1.139,1.139,0,0,0,.763,0l18.31-6.509a1.14,1.14,0,0,0,0-2.148Z" transform="translate(0 -42.468)"/><path class="a" d="M434.276,207.674v-9.94l-2.279.81v9.13a2.288,2.288,0,0,0,0,3.969v5.6a1.14,1.14,0,1,0,2.279,0v-5.6a2.288,2.288,0,0,0,0-3.969Z" transform="translate(-398.115 -185.938)"/><path class="a" d="M116.882,226.269a3.41,3.41,0,0,1-1.145-.2l-10.293-3.659v5.015c0,1.227,1.28,2.264,3.8,3.084a26.866,26.866,0,0,0,15.268,0c2.524-.819,3.8-1.857,3.8-3.084v-5.015l-10.293,3.659A3.411,3.411,0,0,1,116.882,226.269Z" transform="translate(-97.433 -208.741)"/></svg>