<svg xmlns="http://www.w3.org/2000/svg" width="37.564" height="19.291" viewBox="0 0 37.564 19.291"><defs><style>.a{fill:#001ac6;}</style></defs><g transform="translate(0 -0.273)"><circle class="a" cx="3.13" cy="3.13" r="3.13" transform="translate(3.13 2.348)"/><path class="a" d="M10.44,13.626a6.559,6.559,0,0,0-2.614,5.243v.391H1.174A1.182,1.182,0,0,1,0,18.087V17.3A4.3,4.3,0,0,1,4.3,13H8.217A4.276,4.276,0,0,1,10.44,13.626Z" transform="translate(0 -2.826)"/><circle class="a" cx="3.13" cy="3.13" r="3.13" transform="translate(28.173 2.348)"/><path class="a" d="M27.77,17.3v.783A1.182,1.182,0,0,1,26.6,19.261H19.944v-.391a6.559,6.559,0,0,0-2.614-5.243A4.276,4.276,0,0,1,19.553,13h3.913A4.3,4.3,0,0,1,27.77,17.3Z" transform="translate(9.794 -2.826)"/><ellipse class="a" cx="4" cy="4.5" rx="4" ry="4.5" transform="translate(15.585 0.273)"/><path class="a" d="M19.413,14H10.8a4.308,4.308,0,0,0-4.3,4.3v2.348a1.174,1.174,0,0,0,1.174,1.174H22.543a1.174,1.174,0,0,0,1.174-1.174V18.3A4.308,4.308,0,0,0,19.413,14Z" transform="translate(3.674 -2.261)"/></g></svg>