<svg xmlns="http://www.w3.org/2000/svg" width="38.008" height="22.171" viewBox="0 0 38.008 22.171"><defs><style>.a{fill:#001ac6;}</style></defs><g transform="translate(0 0)"><path class="a" d="M9.185,108.408c-1.267-1.267-6.651-1.584-8.393-1.742a.582.582,0,0,0-.475.158,1.2,1.2,0,0,0-.317.634v14.253a.748.748,0,0,0,.792.792H5.543a.871.871,0,0,0,.792-.475c0-.475,2.851-8.869,3.167-12.986A.633.633,0,0,0,9.185,108.408Z" transform="translate(0 -106.666)"/></g><g transform="translate(13.441 3.326)"><path class="a" d="M193.751,153.684c-1.584-.475-3.009-1.109-4.276-1.584-2.851-1.267-4.118-.633-6.651,1.9-1.109,1.109-1.9,2.692-1.742,3.326,0,.158,0,.158.317.317.792.317,1.9.475,3.009-1.267a.823.823,0,0,1,.633-.317,2.935,2.935,0,0,0,1.109-.317,7.722,7.722,0,0,1,1.109-.475h.317c.158,0,.475.158.633.158.792.792,2.217,1.9,3.643,3.167a36.271,36.271,0,0,1,5.543,5.068h.158C196.443,160.493,194.543,155.109,193.751,153.684Z" transform="translate(-181.061 -151.467)"/></g><g transform="translate(26.922 1.584)"><path class="a" d="M372.96,128a27.772,27.772,0,0,0-9.819,1.584l-.475.475a.952.952,0,0,0,.158.633,89.2,89.2,0,0,1,4.593,12.511,1.052,1.052,0,0,0,.792.633h4.751a.748.748,0,0,0,.792-.792V128.792A.748.748,0,0,0,372.96,128Z" transform="translate(-362.666 -128)"/></g><g transform="translate(8.235 4.751)"><path class="a" d="M131.363,183.02c-.633-1.425-3.326-3.484-5.7-5.384-1.267-1.109-2.534-2.059-3.484-2.851-.158.158-.475.158-.475.317a2.984,2.984,0,0,1-1.267.317c-1.267,1.584-2.851,2.217-4.593,1.584a1.872,1.872,0,0,1-1.425-1.425c-.317-1.584,1.109-3.8,2.217-4.909h-3.167a80.742,80.742,0,0,1-2.534,9.5,17.9,17.9,0,0,0,1.742,1.742c3.009,2.534,6.493,5.068,7.126,5.543a4.5,4.5,0,0,0,1.9.633h.475l-2.534-2.534a.784.784,0,1,1,1.109-1.109l3.167,3.167c.317.317.633.158.95.158.475-.158.633-.475.792-.95l-3.642-3.642a.784.784,0,1,1,1.109-1.109l3.959,3.959a1.694,1.694,0,0,0,1.267,0c.158-.158.475-.317.633-.633l-4.434-4.434a.784.784,0,1,1,1.109-1.109l4.593,4.593a1.047,1.047,0,0,0,.95-.158A1.075,1.075,0,0,0,131.363,183.02Z" transform="translate(-110.934 -170.667)"/></g></svg>