<svg xmlns="http://www.w3.org/2000/svg" width="33.66" height="34.455" viewBox="0 0 33.66 34.455"><defs><style>.a{fill:#001ac6;}</style></defs><path class="a" d="M23,51h1.122v1.122H23Z" transform="translate(-11.219 -23.277)"/><path class="a" d="M32.294,37.916V17.557L18.83,8.417,5.366,17.557v5.988a1.955,1.955,0,0,1,1.82,1.228c1.4,3.457,2.107,5.8,2.107,6.972a4.221,4.221,0,0,1-3.366,4.441V35.05a3.148,3.148,0,0,0,2.244-3.3c0-1.315-1.2-4.5-2.026-6.552a.84.84,0,0,0-1.559,0c-.83,2.053-2.025,5.237-2.025,6.552a3.148,3.148,0,0,0,2.244,3.3v2.867H2v1.122H35.66V37.916ZM24.44,30.623l1.122-1.683,1.122,1.683v1.683h2.244V30.623L30.05,28.94l1.122,1.683v7.293H28.928V34.55H26.684v3.366H24.44V34.55H22.2v3.366H19.952V30.623l1.122-1.683L22.2,30.623v1.683H24.44ZM19.391,19.4H22.2v1.122a1.683,1.683,0,0,1-1.683,1.683H19.391Zm1.122-3.927A1.683,1.683,0,0,1,22.2,17.159v1.122H19.391V15.476Zm-5.049,1.683a1.683,1.683,0,0,1,1.683-1.683h1.122v2.805H15.464Zm0,2.244h2.805v2.805H17.147a1.683,1.683,0,0,1-1.683-1.683Zm1.122,7.854V37.916H10.415V27.257Z" transform="translate(-2 -4.583)"/><path class="a" d="M19.215,4.295,34.293,14.527l1.26-1.857L19.215,1.583,2.877,12.669l1.26,1.857Z" transform="translate(-2.385 -1.583)"/></svg>