<svg xmlns="http://www.w3.org/2000/svg" width="30.886" height="30.886" viewBox="0 0 30.886 30.886"><defs><style>.a{fill:#001ac6;}</style></defs><path class="a" d="M396.426,268.344h3.619v8.666h-3.619Zm0,0" transform="translate(-372.512 -252.156)"/><path class="a" d="M282.809,268.344h3.619v8.666h-3.619Zm0,0" transform="translate(-265.749 -252.156)"/><path class="a" d="M169.191,268.344h3.619v8.666h-3.619Zm0,0" transform="translate(-158.985 -252.156)"/><path class="a" d="M55.578,268.344H59.2v8.666H55.578Zm0,0" transform="translate(-52.226 -252.156)"/><path class="a" d="M62.172,209.249v-.9H35.578v.9a.9.9,0,0,0,.9.9H61.267A.9.9,0,0,0,62.172,209.249Zm0,0" transform="translate(-33.432 -195.776)"/><path class="a" d="M29.995,442H.92a.9.9,0,0,0-.9.9v2.413a.9.9,0,0,0,.9.9H29.995a.9.9,0,0,0,.9-.9V442.9A.9.9,0,0,0,29.995,442Zm0,0" transform="translate(-0.015 -415.337)"/><path class="a" d="M.906,10.758H29.982a.9.9,0,0,0,.474-1.675L15.918.134a.9.9,0,0,0-.949,0L.432,9.083a.9.9,0,0,0,.474,1.675ZM14.829,5.322h1.23a.9.9,0,1,1,0,1.81h-1.23a.9.9,0,0,1,0-1.81Zm0,0" transform="translate(-0.001)"/></svg>