<svg xmlns="http://www.w3.org/2000/svg" width="27.587" height="33.121" viewBox="0 0 27.587 33.121"><defs><style>.a{fill:#001ac6;}</style></defs><g transform="translate(0)"><g transform="translate(6.025)"><path class="a" d="M154.529,2.259,150.608,0l-3.921,2.259L142.767,0l-3.921,2.259L135.906.565V27.184h17.5V31.09a2.032,2.032,0,1,0,4.063,0V.565ZM138.294,17.73V15.768h8.393V17.73Zm16.787-4.283H138.294V11.485h16.787Zm0-4.283H138.294V7.2h16.787Z" transform="translate(-135.906)"/></g><g transform="translate(0 29.146)"><path class="a" d="M64.336,452.488v-1.944H42.773v1.944A2.034,2.034,0,0,0,44.8,454.52H64.892A3.969,3.969,0,0,1,64.336,452.488Z" transform="translate(-42.773 -450.544)"/></g></g></svg>