<svg xmlns="http://www.w3.org/2000/svg" width="26.856" height="23.872" viewBox="0 0 26.856 23.872"><defs><style>.a{fill:#001ac6;}</style></defs><g transform="translate(0 0)"><path class="a" d="M24.623,14.049l2.2-9.7a1.119,1.119,0,0,0-1.091-1.367H7.423L7,.895A1.119,1.119,0,0,0,5.9,0H1.119A1.119,1.119,0,0,0,0,1.119v.746A1.119,1.119,0,0,0,1.119,2.984H4.377L7.653,19a2.611,2.611,0,1,0,3.126.4h9.775a2.61,2.61,0,1,0,2.965-.485l.257-1.132a1.119,1.119,0,0,0-1.091-1.367H10.17L9.864,14.92H23.532A1.119,1.119,0,0,0,24.623,14.049Z" transform="translate(0 0)"/></g></svg>