<svg xmlns="http://www.w3.org/2000/svg" width="31.614" height="31.614" viewBox="0 0 31.614 31.614"><defs><style>.a{fill:#001ac6;}</style></defs><path class="a" d="M33.779,14.819a2.765,2.765,0,0,0,1.923-.781l2.742,1.371a2.722,2.722,0,0,0-.034.337,2.779,2.779,0,0,0,5.557,0,2.745,2.745,0,0,0-.279-1.19l3.719-3.719a2.745,2.745,0,0,0,1.19.279,2.782,2.782,0,0,0,2.779-2.779,2.737,2.737,0,0,0-.139-.823L54.469,5.09a2.777,2.777,0,1,0-1.24-2.311,2.737,2.737,0,0,0,.139.823L50.136,6.025a2.767,2.767,0,0,0-4.038,3.5l-3.719,3.719a2.73,2.73,0,0,0-3.114.5l-2.742-1.371a2.721,2.721,0,0,0,.034-.337,2.779,2.779,0,1,0-2.779,2.779Zm0,0" transform="translate(-29.086)"/><path class="a" d="M30.688,170.5H29.7V150.926a.926.926,0,0,0-.926-.926h-3.7a.926.926,0,0,0-.926.926V170.5H22.29V156.483a.926.926,0,0,0-.926-.926h-3.7a.926.926,0,0,0-.926.926V170.5H14.881v-6.607a.926.926,0,0,0-.926-.926h-3.7a.926.926,0,0,0-.926.926V170.5H7.471V160.188a.926.926,0,0,0-.926-.926H2.84a.926.926,0,0,0-.926.926V170.5H.926a.926.926,0,0,0,0,1.852H30.688a.926.926,0,0,0,0-1.852Zm0,0" transform="translate(0 -140.738)"/></svg>