<svg xmlns="http://www.w3.org/2000/svg" width="20.045" height="38.016" viewBox="0 0 20.045 38.016"><defs><style>.a{fill:#001ac6;}</style></defs><path class="a" d="M137.939,10.078h-2.8V2.227h1.336V0H125.64V2.227h1.336v7.851h-2.8a3.147,3.147,0,0,0-3.143,3.143V33.29a3.147,3.147,0,0,0,3.143,3.143h1.312v1.584h2.227V36.433H134.4v1.584h2.227V36.433h1.312a3.147,3.147,0,0,0,3.143-3.143V13.221a3.147,3.147,0,0,0-3.143-3.143ZM127.719,31.335h-2.227V15.176h2.227Zm4.455,0h-2.227V15.176h2.227Zm.743-21.257H129.2V2.227h3.712Zm3.712,21.257H134.4V15.176h2.227Z" transform="translate(-121.037)"/></svg>